<mxfile host="app.diagrams.net" modified="2024-02-29T14:32:12.082Z" agent="Mozilla/5.0 (Macintosh; Intel Mac OS X 10_15_7) AppleWebKit/537.36 (KHTML, like Gecko) Chrome/121.0.0.0 Safari/537.36" etag="D-IXkAvbY5KudtxEsqp7" version="23.1.8" type="github">
  <diagram name="Page-1" id="eYld5pGvR09Yj4JUqnYe">
    <mxGraphModel dx="1431" dy="724" grid="1" gridSize="10" guides="1" tooltips="1" connect="1" arrows="1" fold="1" page="1" pageScale="1" pageWidth="850" pageHeight="1100" math="0" shadow="0">
      <root>
        <mxCell id="0" />
        <mxCell id="1" parent="0" />
        <mxCell id="a5Cc4LVXQPA3bXJ3T3mX-3" value="" style="group" parent="1" vertex="1" connectable="0">
          <mxGeometry x="30" y="70" width="380" height="250" as="geometry" />
        </mxCell>
        <mxCell id="a5Cc4LVXQPA3bXJ3T3mX-2" value="app" style="text;html=1;align=center;verticalAlign=middle;whiteSpace=wrap;rounded=0;" parent="a5Cc4LVXQPA3bXJ3T3mX-3" vertex="1">
          <mxGeometry width="71.25" height="24.193548387096772" as="geometry" />
        </mxCell>
        <mxCell id="a5Cc4LVXQPA3bXJ3T3mX-4" value="" style="group" parent="1" vertex="1" connectable="0">
          <mxGeometry x="520" y="70" width="370" height="210" as="geometry" />
        </mxCell>
        <mxCell id="a5Cc4LVXQPA3bXJ3T3mX-5" value="" style="rounded=0;whiteSpace=wrap;html=1;" parent="a5Cc4LVXQPA3bXJ3T3mX-4" vertex="1">
          <mxGeometry width="370" height="209.99999999999997" as="geometry" />
        </mxCell>
        <mxCell id="a5Cc4LVXQPA3bXJ3T3mX-6" value="settings-api" style="text;html=1;align=center;verticalAlign=middle;whiteSpace=wrap;rounded=0;" parent="a5Cc4LVXQPA3bXJ3T3mX-4" vertex="1">
          <mxGeometry width="69.375" height="20.32258064516129" as="geometry" />
        </mxCell>
        <mxCell id="a5Cc4LVXQPA3bXJ3T3mX-7" value="LineUserSettingsFragmentFactoryImpl" style="swimlane;fontStyle=1;align=center;verticalAlign=top;childLayout=stackLayout;horizontal=1;startSize=26;horizontalStack=0;resizeParent=1;resizeParentMax=0;resizeLast=0;collapsible=1;marginBottom=0;whiteSpace=wrap;html=1;" parent="1" vertex="1">
          <mxGeometry x="620" y="790" width="230" height="86" as="geometry" />
        </mxCell>
        <mxCell id="a5Cc4LVXQPA3bXJ3T3mX-8" value="+ field: type" style="text;strokeColor=none;fillColor=none;align=left;verticalAlign=top;spacingLeft=4;spacingRight=4;overflow=hidden;rotatable=0;points=[[0,0.5],[1,0.5]];portConstraint=eastwest;whiteSpace=wrap;html=1;" parent="a5Cc4LVXQPA3bXJ3T3mX-7" vertex="1">
          <mxGeometry y="26" width="230" height="26" as="geometry" />
        </mxCell>
        <mxCell id="a5Cc4LVXQPA3bXJ3T3mX-9" value="" style="line;strokeWidth=1;fillColor=none;align=left;verticalAlign=middle;spacingTop=-1;spacingLeft=3;spacingRight=3;rotatable=0;labelPosition=right;points=[];portConstraint=eastwest;strokeColor=inherit;" parent="a5Cc4LVXQPA3bXJ3T3mX-7" vertex="1">
          <mxGeometry y="52" width="230" height="8" as="geometry" />
        </mxCell>
        <mxCell id="a5Cc4LVXQPA3bXJ3T3mX-10" value="+ method(type): type" style="text;strokeColor=none;fillColor=none;align=left;verticalAlign=top;spacingLeft=4;spacingRight=4;overflow=hidden;rotatable=0;points=[[0,0.5],[1,0.5]];portConstraint=eastwest;whiteSpace=wrap;html=1;" parent="a5Cc4LVXQPA3bXJ3T3mX-7" vertex="1">
          <mxGeometry y="60" width="230" height="26" as="geometry" />
        </mxCell>
        <mxCell id="a5Cc4LVXQPA3bXJ3T3mX-11" value="LineUserSettingsFragmentFactory" style="swimlane;fontStyle=0;childLayout=stackLayout;horizontal=1;startSize=26;fillColor=none;horizontalStack=0;resizeParent=1;resizeParentMax=0;resizeLast=0;collapsible=1;marginBottom=0;whiteSpace=wrap;html=1;" parent="1" vertex="1">
          <mxGeometry x="630" y="480" width="220" height="104" as="geometry" />
        </mxCell>
        <mxCell id="a5Cc4LVXQPA3bXJ3T3mX-12" value="+ field: type" style="text;strokeColor=none;fillColor=none;align=left;verticalAlign=top;spacingLeft=4;spacingRight=4;overflow=hidden;rotatable=0;points=[[0,0.5],[1,0.5]];portConstraint=eastwest;whiteSpace=wrap;html=1;" parent="a5Cc4LVXQPA3bXJ3T3mX-11" vertex="1">
          <mxGeometry y="26" width="220" height="26" as="geometry" />
        </mxCell>
        <mxCell id="a5Cc4LVXQPA3bXJ3T3mX-13" value="+ field: type" style="text;strokeColor=none;fillColor=none;align=left;verticalAlign=top;spacingLeft=4;spacingRight=4;overflow=hidden;rotatable=0;points=[[0,0.5],[1,0.5]];portConstraint=eastwest;whiteSpace=wrap;html=1;" parent="a5Cc4LVXQPA3bXJ3T3mX-11" vertex="1">
          <mxGeometry y="52" width="220" height="26" as="geometry" />
        </mxCell>
        <mxCell id="a5Cc4LVXQPA3bXJ3T3mX-14" value="+ field: type" style="text;strokeColor=none;fillColor=none;align=left;verticalAlign=top;spacingLeft=4;spacingRight=4;overflow=hidden;rotatable=0;points=[[0,0.5],[1,0.5]];portConstraint=eastwest;whiteSpace=wrap;html=1;" parent="a5Cc4LVXQPA3bXJ3T3mX-11" vertex="1">
          <mxGeometry y="78" width="220" height="26" as="geometry" />
        </mxCell>
        <mxCell id="a5Cc4LVXQPA3bXJ3T3mX-15" value="Extends" style="endArrow=block;endSize=16;endFill=0;html=1;rounded=0;entryX=0.462;entryY=1.115;entryDx=0;entryDy=0;entryPerimeter=0;exitX=0.5;exitY=0;exitDx=0;exitDy=0;" parent="1" source="a5Cc4LVXQPA3bXJ3T3mX-7" target="a5Cc4LVXQPA3bXJ3T3mX-14" edge="1">
          <mxGeometry width="160" relative="1" as="geometry">
            <mxPoint x="340" y="710" as="sourcePoint" />
            <mxPoint x="500" y="710" as="targetPoint" />
          </mxGeometry>
        </mxCell>
        <mxCell id="a5Cc4LVXQPA3bXJ3T3mX-16" value="LineUserSettingsFragmentActivity" style="swimlane;fontStyle=0;childLayout=stackLayout;horizontal=1;startSize=26;fillColor=none;horizontalStack=0;resizeParent=1;resizeParentMax=0;resizeLast=0;collapsible=1;marginBottom=0;whiteSpace=wrap;html=1;" parent="1" vertex="1">
          <mxGeometry x="50" y="480" width="200" height="104" as="geometry" />
        </mxCell>
        <mxCell id="a5Cc4LVXQPA3bXJ3T3mX-17" value="+ field: type" style="text;strokeColor=none;fillColor=none;align=left;verticalAlign=top;spacingLeft=4;spacingRight=4;overflow=hidden;rotatable=0;points=[[0,0.5],[1,0.5]];portConstraint=eastwest;whiteSpace=wrap;html=1;" parent="a5Cc4LVXQPA3bXJ3T3mX-16" vertex="1">
          <mxGeometry y="26" width="200" height="26" as="geometry" />
        </mxCell>
        <mxCell id="a5Cc4LVXQPA3bXJ3T3mX-18" value="+ field: type" style="text;strokeColor=none;fillColor=none;align=left;verticalAlign=top;spacingLeft=4;spacingRight=4;overflow=hidden;rotatable=0;points=[[0,0.5],[1,0.5]];portConstraint=eastwest;whiteSpace=wrap;html=1;" parent="a5Cc4LVXQPA3bXJ3T3mX-16" vertex="1">
          <mxGeometry y="52" width="200" height="26" as="geometry" />
        </mxCell>
        <mxCell id="a5Cc4LVXQPA3bXJ3T3mX-19" value="+ field: type" style="text;strokeColor=none;fillColor=none;align=left;verticalAlign=top;spacingLeft=4;spacingRight=4;overflow=hidden;rotatable=0;points=[[0,0.5],[1,0.5]];portConstraint=eastwest;whiteSpace=wrap;html=1;" parent="a5Cc4LVXQPA3bXJ3T3mX-16" vertex="1">
          <mxGeometry y="78" width="200" height="26" as="geometry" />
        </mxCell>
        <mxCell id="a5Cc4LVXQPA3bXJ3T3mX-20" value="" style="endArrow=none;dashed=1;html=1;dashPattern=1 3;strokeWidth=2;rounded=0;" parent="1" edge="1">
          <mxGeometry width="50" height="50" relative="1" as="geometry">
            <mxPoint x="440" y="1010" as="sourcePoint" />
            <mxPoint x="440" y="370" as="targetPoint" />
          </mxGeometry>
        </mxCell>
        <mxCell id="a5Cc4LVXQPA3bXJ3T3mX-21" value="" style="endArrow=none;dashed=1;html=1;dashPattern=1 3;strokeWidth=2;rounded=0;" parent="1" edge="1">
          <mxGeometry width="50" height="50" relative="1" as="geometry">
            <mxPoint x="450" y="1020" as="sourcePoint" />
            <mxPoint x="450" y="380" as="targetPoint" />
          </mxGeometry>
        </mxCell>
      </root>
    </mxGraphModel>
  </diagram>
</mxfile>
